PathFileType	4	(X/Y/Z)	/Users/itak/Documents/Research/Walk-IL/dataset/trc/00046_00004.trc
DataRate	CameraRate	NumFrames	NumMarkers	Units	OrigDataRate	OrigDataStartFrame	OrigNumFrames
100.000000	100.000000	4	53	mm	100.000000	241	482
Frame#	Time	RPSI			LPSI			L3			STRN			T10			C7			CLAV			RBAK			LBAK			LSHO			LUPA			LAEL			LAOL			LWTS			LWPS			LFRA			LIFD			LHPS			LHTS			RSHO			RUPA			RAEL			RAOL			RWTS			RWPS			RFRA			RIFD			RHTS			RHPS			RBHD			LFHD			RFHD			LBHD			LHIP			RASI			LASI			LKNE			LTHI			LANK			LTIP			LTOE			LMT1			LMT5			LHEE			RKNE			RTHI			RANK			RTIP			RTOE			RMT1			RMT5			RHEE			RHIP			
		X1	Y1	Z1	X2	Y2	Z2	X3	Y3	Z3	X4	Y4	Z4	X5	Y5	Z5	X6	Y6	Z6	X7	Y7	Z7	X8	Y8	Z8	X9	Y9	Z9	X10	Y10	Z10	X11	Y11	Z11	X12	Y12	Z12	X13	Y13	Z13	X14	Y14	Z14	X15	Y15	Z15	X16	Y16	Z16	X17	Y17	Z17	X18	Y18	Z18	X19	Y19	Z19	X20	Y20	Z20	X21	Y21	Z21	X22	Y22	Z22	X23	Y23	Z23	X24	Y24	Z24	X25	Y25	Z25	X26	Y26	Z26	X27	Y27	Z27	X28	Y28	Z28	X29	Y29	Z29	X30	Y30	Z30	X31	Y31	Z31	X32	Y32	Z32	X33	Y33	Z33	X34	Y34	Z34	X35	Y35	Z35	X36	Y36	Z36	X37	Y37	Z37	X38	Y38	Z38	X39	Y39	Z39	X40	Y40	Z40	X41	Y41	Z41	X42	Y42	Z42	X43	Y43	Z43	X44	Y44	Z44	X45	Y45	Z45	X46	Y46	Z46	X47	Y47	Z47	X48	Y48	Z48	X49	Y49	Z49	X50	Y50	Z50	X51	Y51	Z51	X52	Y52	Z52	X53	Y53	Z53	

242	2.41	-612.4407958984375	1060.01416015625	292.883544921875	-573.9013671875	1056.968139648438	133.8826293945312	-596.1641235351562	1117.105224609375	204.6891021728516	-382.43310546875	1312.098510742188	274.5417175292969	-617.51416015625	1262.87744140625	194.9842224121094	-564.0669555664062	1529.293090820312	196.7255401611328	-418.8429870605469	1438.328735351562	256.2512817382812	-640.07177734375	1394.067993164062	257.9978332519531	-549.7188110351562	1487.595703125	99.93199920654297	-429.1803588867188	1494.189331054688	63.35615921020508	-436.4165649414062	1368.133056640625	-20.16549110412598	-433.9838562011719	1151.885498046875	-48.18611907958984	-511.8027038574219	1138.932495117188	21.53559875488281	-359.3883056640625	902.2791137695312	31.23115539550781	-420.5364074707031	885.2228393554688	-30.79068565368652	-418.0814208984375	1036.277954101562	-50.63177108764648	-332.5208129882812	720.0962524414062	59.50107955932617	-385.2626953125	796.92138671875	-19.97404861450195	-331.5736694335938	810.0109252929688	25.33530807495117	-550.729736328125	1517.443603515625	388.2772827148438	-588.002685546875	1449.317993164062	451.2902221679688	-632.5131225585938	1181.442993164062	473.3732299804688	-601.120361328125	1151.254516601562	383.6402282714844	-446.556640625	957.4021606445312	493.151611328125	-519.2734375	925.3711547851562	540.8858642578125	-613.6133422851562	1104.909790039062	496.9464721679688	-378.2586364746094	786.5616455078125	489.8135375976562	-391.4302368164062	861.3937377929688	521.0858154296875	-455.7553405761719	839.9896240234375	556.747314453125	-450.3880004882812	1704.898681640625	145.5851440429688	-425.4025268554688	1732.7568359375	360.8134155273438	-351.6673583984375	1732.884033203125	295.903076171875	-553.4791259765625	1703.37841796875	246.3821716308594	-446.1285400390625	957.1268920898438	51.52924346923828	-412.856201171875	981.8155517578125	373.3312683105469	-358.712646484375	1007.493591308594	146.5776062011719	-271.68359375	537.8286743164062	133.0503540039062	-328.9394836425781	666.1928100585938	79.90384674072266	-471.3790893554688	87.91880798339844	2.212565183639526	-387.1409606933594	322.9369506835938	44.90019989013672	-277.997802734375	49.69264984130859	108.0613555908203	-337.6736145019531	59.48173904418945	112.9956512451172	-348.5558166503906	72.2498779296875	8.332584381103516	-548.8250732421875	98.1932373046875	38.31663513183594	-496.9571228027344	508.7770690917969	321.9072570800781	-497.9059448242188	771.73779296875	400.2550354003906	-606.8041381835938	42.1894416809082	201.5231628417969	-520.9361572265625	386.3511352539062	297.1409912109375	-372.9902038574219	43.17555618286133	233.6371765136719	-423.9801025390625	48.35383224487305	185.4042205810547	-473.0823974609375	41.26168441772461	268.7981872558594	-645.5197143554688	44.94027328491211	142.0721435546875	-529.09716796875	940.607666015625	416.6980285644531	
243	2.42	-606.1835327148438	1059.544067382812	293.8103942871094	-565.7274169921875	1056.485595703125	135.2116851806641	-588.7968139648438	1116.544189453125	205.8071594238281	-376.0053100585938	1311.35205078125	278.0103759765625	-610.1439208984375	1262.389770507812	195.8905639648438	-556.53125	1528.786254882812	198.2778778076172	-412.02294921875	1437.611694335938	259.3242797851562	-633.2780151367188	1393.598266601562	258.7543334960938	-541.2315673828125	1487.023193359375	101.6421966552734	-420.3301696777344	1493.479736328125	66.31078338623047	-426.7821960449219	1367.37744140625	-17.20329475402832	-424.2327880859375	1151.14453125	-45.16867065429688	-502.6878662109375	1138.195922851562	23.84150505065918	-350.09521484375	901.7162475585938	35.11845397949219	-410.7962951660156	884.5054931640625	-27.45063018798828	-408.2454833984375	1035.537963867188	-47.37966537475586	-323.2819213867188	719.58203125	63.76839447021484	-375.4364318847656	796.2504272460938	-16.20378112792969	-322.1108703613281	809.4554443359375	29.56145286560059	-545.2138061523438	1516.884887695312	389.9673156738281	-583.2103271484375	1448.793579101562	452.5810241699219	-628.1539916992188	1180.921264648438	474.3383178710938	-595.9633178710938	1150.7119140625	384.9092712402344	-441.4420166015625	957.6143188476562	495.6967468261719	-514.4181518554688	925.3213500976562	542.8948974609375	-609.2003784179688	1104.397583007812	498.1539611816406	-372.4842224121094	787.0509643554688	492.9658508300781	-386.1209411621094	861.8597412109375	524.1063842773438	-450.5707397460938	840.2127075195312	559.3968505859375	-442.5881652832031	1704.435913085938	148.3784332275391	-419.1485595703125	1732.056884765625	363.843994140625	-344.9195556640625	1732.231201171875	299.439697265625	-546.4067993164062	1702.773315429688	248.4625701904297	-436.5040588378906	956.7152099609375	54.58471298217773	-407.7856750488281	980.92822265625	376.8104248046875	-350.727783203125	1006.980407714844	150.8009033203125	-260.0013427734375	539.6685180664062	140.865478515625	-317.6233520507812	666.8350219726562	85.41602325439453	-440.1880493164062	82.12345123291016	9.896703720092773	-365.6474304199219	320.5654907226562	51.91922760009766	-249.4456329345703	51.23313903808594	122.9561386108398	-309.5234985351562	59.42423629760742	125.6497268676758	-317.1796569824219	70.40116882324219	20.57101821899414	-519.197265625	90.46626281738281	43.13955307006836	-495.0733337402344	508.0891723632812	323.208740234375	-494.3575134277344	770.9835205078125	401.8541870117188	-606.770751953125	42.30983734130859	201.462890625	-519.7316284179688	385.9501342773438	297.9065856933594	-372.9598388671875	43.1149787902832	233.6769866943359	-423.9208679199219	48.35918045043945	185.5068359375	-473.0862426757812	41.19828033447266	268.8886413574219	-645.6682739257812	45.2934455871582	141.9522857666016	-524.6246948242188	940.0135498046875	418.5910949707031	
244	2.43	-599.8965454101562	1059.017456054688	294.7733764648438	-557.5728149414062	1055.930297851562	136.6039581298828	-581.4334716796875	1115.935913085938	206.9697570800781	-369.5448608398438	1310.536499023438	281.5049743652344	-602.7410278320312	1261.855590820312	196.8162841796875	-548.9177856445312	1528.221435546875	199.8680419921875	-405.1706237792969	1436.831665039062	262.4287414550781	-626.4472045898438	1393.074462890625	259.513427734375	-532.6594848632812	1486.400512695312	103.388671875	-411.4257507324219	1492.70263671875	69.31678771972656	-417.0897216796875	1366.556396484375	-14.18821334838867	-414.4481811523438	1150.34130859375	-42.10589599609375	-493.5549621582031	1137.412231445312	26.16069602966309	-340.9002990722656	901.0569458007812	39.03358840942383	-401.1327819824219	883.7160034179688	-24.079833984375	-398.4133911132812	1034.736938476562	-44.08795166015625	-314.1970825195312	718.9581298828125	68.0736083984375	-365.6875915527344	795.4971923828125	-12.39090251922607	-312.7477722167969	808.80712890625	33.83188247680664	-539.6614379882812	1516.255737304688	391.6631164550781	-578.3975219726562	1448.19189453125	453.8563537597656	-623.7883911132812	1180.329223632812	475.2438354492188	-590.7789306640625	1150.1005859375	386.1357421875	-436.4939880371094	957.6239013671875	498.2301940917969	-509.7963562011719	925.12890625	544.845458984375	-604.809814453125	1103.8115234375	499.3146057128906	-367.0857238769531	787.2709350585938	496.1103210449219	-381.0586547851562	862.077392578125	527.1315307617188	-445.6807250976562	840.232666015625	562.0093383789062	-434.7489013671875	1703.8896484375	151.189208984375	-412.8775329589844	1731.311645507812	366.8894348144531	-338.1611938476562	1731.530639648438	303.0031433105469	-539.296142578125	1702.080810546875	250.5466613769531	-426.9188842773438	956.2150268554688	57.6867561340332	-402.6430969238281	979.9984741210938	380.2540588378906	-342.8141479492188	1006.365783691406	154.9702758789062	-248.6445007324219	541.3917846679688	148.5639495849609	-306.5528869628906	667.393310546875	90.91674041748047	-409.2304382324219	76.90831756591797	18.40648078918457	-344.3456726074219	318.4112243652344	59.31924057006836	-221.7833404541016	52.87700271606445	138.7734069824219	-282.1339416503906	59.60249328613281	139.1399230957031	-286.3403930664062	68.85790252685547	33.75868606567383	-489.6564331054688	83.45453643798828	48.68395614624023	-492.9452209472656	507.3912963867188	324.528076171875	-490.7944946289062	770.1975708007812	403.5173950195312	-606.7220458984375	42.44643402099609	201.4084167480469	-518.29296875	385.51171875	298.6893005371094	-372.9170837402344	43.0540657043457	233.7151947021484	-423.8459777832031	48.36089706420898	185.6139526367188	-473.0792236328125	41.13262939453125	268.9779663085938	-645.7943115234375	45.68050003051758	141.8429870605469	-520.0759887695312	939.3751831054688	420.4905700683594	
245	2.44	-593.5753173828125	1058.431884765625	295.7716674804688	-549.4259033203125	1055.302734375	138.0603942871094	-574.0689697265625	1115.280151367188	208.1772766113281	-363.0402221679688	1309.664428710938	285.0285949707031	-595.3031616210938	1261.275024414062	197.7719268798828	-541.2408447265625	1527.597534179688	201.4966583251953	-398.2908935546875	1435.998901367188	265.5633544921875	-619.5789184570312	1392.500244140625	260.2831115722656	-524.008544921875	1485.7294921875	105.1752700805664	-402.4787292480469	1491.863159179688	72.375732421875	-407.3473510742188	1365.678955078125	-11.12023448944092	-404.6266479492188	1149.483764648438	-39.00008392333984	-484.4005432128906	1136.589477539062	28.49072265625	-331.8121948242188	900.3028564453125	42.97176361083984	-391.5265808105469	882.8593139648438	-20.67617988586426	-388.5831909179688	1033.881225585938	-40.76256942749023	-305.2655944824219	718.2296752929688	72.42436218261719	-356.0191650390625	794.6686401367188	-8.541049003601074	-303.4965515136719	808.0731811523438	38.14284515380859	-534.0633544921875	1515.563720703125	393.3701477050781	-573.5516967773438	1447.5234375	455.1233520507812	-619.4008178710938	1179.6787109375	476.0964050292969	-585.56005859375	1149.433349609375	387.3243713378906	-431.7038269042969	957.4349975585938	500.7503051757812	-505.3932495117188	924.7987060546875	546.7440185546875	-600.4364624023438	1103.160766601562	500.4272155761719	-362.0394287109375	787.2291870117188	499.2447204589844	-376.2414245605469	862.0496215820312	530.1534423828125	-441.0803527832031	840.0545654296875	564.5784301757812	-426.8653869628906	1703.262573242188	154.0187530517578	-406.5797729492188	1730.520263671875	369.945556640625	-331.3851928710938	1730.782104492188	306.5873413085938	-532.1466674804688	1701.315063476562	252.634521484375	-417.3650512695312	955.639892578125	60.82915878295898	-397.4202575683594	979.0386962890625	383.6664733886719	-334.9591369628906	1005.657348632812	159.0980987548828	-237.6434478759766	542.974609375	156.0757446289062	-295.7375793457031	667.857421875	96.40453338623047	-378.6091613769531	72.27175140380859	27.73491859436035	-323.318359375	316.4686279296875	67.08237457275391	-194.9923095703125	54.58048629760742	155.3236999511719	-255.4939117431641	59.96025848388672	153.339111328125	-256.1112365722656	67.63096618652344	47.78191757202148	-460.2832641601562	77.13323211669922	55.00577926635742	-490.5673522949219	506.6883850097656	325.870849609375	-487.2389831542969	769.3760986328125	405.2587585449219	-606.6598510742188	42.60493850708008	201.3578643798828	-516.621826171875	385.0370788574219	299.5009765625	-372.8619079589844	42.99264907836914	233.7505340576172	-423.7686462402344	48.35952377319336	185.7191467285156	-473.0629272460938	41.06657028198242	269.0655212402344	-645.8733520507812	46.09575653076172	141.7530822753906	-515.4474487304688	938.6927490234375	422.3967895507812	
